<svg width="512" height="512" viewBox="0 0 512 512" xmlns="http://www.w3.org/2000/svg">
<path fill-rule="evenodd" clip-rule="evenodd" d="M280.901 58.5C269.739 39.1667 241.834 39.1667 230.672 58.5L18.9285 425.25C7.76642 444.583 21.719 468.75 44.0433 468.75H467.53C489.854 468.75 503.807 444.583 492.644 425.25L280.901 58.5ZM184.964 264.355V228H171.673C159.151 228 149 238.151 149 250.673V264.355H184.964ZM149 292.5V378.5H184.964V292.5H149ZM149 420.327V406.645H184.964V443H171.673C159.151 443 149 432.849 149 420.327ZM213.109 443H299.109V406.645H213.109V443ZM341.327 443H327.255V406.645H364V420.327C364 432.849 353.849 443 341.327 443ZM364 378.5V292.5H327.255V378.5H364ZM364 250.673V264.355H327.255V228H341.327C353.849 228 364 238.151 364 250.673ZM299.109 228H213.109V264.355H299.109V228ZM299.109 378.5V292.5H213.109V378.5H299.109Z"/>
</svg>
